{"title":"Game of Thrones S06E06 720p PROPER HDTV x264-EZTV","uid":14734736,"size":432512873,"categoryP":"video","categoryS":"tv_shows","magnet":"?xt=urn:btih:ad376c7ae71f58ba725cef78fbae4ef15e76ac1e&amp;dn=Game+of+Thrones+S06E06+720p+PROPER+HDTV+x264-EZTV&amp;tr=udp%3A%2F%2Ftracker.leechers-paradise.org%3A6969&amp;tr=udp%3A%2F%2Fzer0day.ch%3A1337&amp;tr=udp%3A%2F%2Fopen.demonii.com%3A1337&amp;tr=udp%3A%2F%2Ftracker.coppersurfer.tk%3A6969&amp;tr=udp%3A%2F%2Fexodus.desync.com%3A6969","seeders":9,"leechers":0,"uploader":"tykoon123","files":2,"time":1464624955,"description":"File size : 412 MiB \r\nDuration : 51mn 23s \r\nOverall bit rate : 1 122 Kbps \r\n\r\n\r\nVideo \r\nID : 1 \r\nFormat : AVC \r\nFormat/Info : Advanced Video Codec \r\nFormat profile :    \r\nFormat settings, CABAC : Yes \r\nFormat settings, ReFrames : 6 frames \r\nCodec ID : V_MPEG4/ISO/AVC \r\nDuration : 51mn 23s \r\nWidth : 1 280 pixels \r\nHeight : 720 pixels \r\nDisplay aspect ratio : 16:9 \r\nFrame rate mode : Constant \r\nFrame rate : 23.976 fps \r\nColor space : YUV \r\nChroma subsampling : 4:2:0 \r\nBit depth : 8 bits \r\nScan type : Progressive \r\nBits/(Pixel*Frame) : 0.036 \r\nStream size : 287 MiB (69%) \r\nWriting library : x264 core 148 r2638 7599210 \r\nDefault : Yes \r\nForced : No \r\n\r\nAudio \r\nID : 2 \r\nFormat : AC-3 \r\nFormat/Info : Audio Coding 3 \r\nMode extension : CM (complete main) \r\nFormat settings, Endianness : Big \r\nCodec ID : A_AC3 \r\nDuration : 51mn 23s \r\nBit rate mode : Constant \r\nBit rate : 320 Kbps \r\nChannel(s) : 6 channels \r\nChannel positions : Front: L C R, Side: L R, LFE \r\nSampling rate : 48.0 KHz \r\nCompression mode : Lossy \r\nStream size : 118 MiB (29%) \r\nLanguage : English \r\nDefault : Yes \r\nForced : No","torrent":{"xt":"urn:btih:ad376c7ae71f58ba725cef78fbae4ef15e76ac1e","amp;dn":"Game+of+Thrones+S06E06+720p+PROPER+HDTV+x264-EZTV","amp;tr":["udp%3A%2F%2Ftracker.leechers-paradise.org%3A6969","udp%3A%2F%2Fzer0day.ch%3A1337","udp%3A%2F%2Fopen.demonii.com%3A1337","udp%3A%2F%2Ftracker.coppersurfer.tk%3A6969","udp%3A%2F%2Fexodus.desync.com%3A6969"],"infoHash":"ad376c7ae71f58ba725cef78fbae4ef15e76ac1e","infoHashBuffer":{"type":"Buffer","data":[173,55,108,122,231,31,88,186,114,92,239,120,251,174,78,241,94,118,172,30]},"announce":[],"urlList":[]}}